<?xml version="1.0" encoding="UTF-8" standalone="no"?>
<!DOCTYPE svg PUBLIC "-//W3C//DTD SVG 1.1//EN" "http://www.w3.org/Graphics/SVG/1.1/DTD/svg11.dtd">
<svg width="100%" height="100%" viewBox="0 0 50 50" version="1.1" xmlns="http://www.w3.org/2000/svg" xmlns:xlink="http://www.w3.org/1999/xlink" xml:space="preserve" xmlns:serif="http://www.serif.com/" style="fill-rule:evenodd;clip-rule:evenodd;stroke-linejoin:round;stroke-miterlimit:1.41421;">
    <g id="icon" transform="matrix(0.128522,0,0,0.128522,0,6.39525)">
        <path d="M316.398,94.322C312.238,69.599 300,47.041 281.281,29.92C260.48,10.88 233.441,0.4 205.281,0.4C183.52,0.4 162.32,6.638 144.16,18.4C129.039,28.162 116.48,41.361 107.602,56.88C103.762,56.162 99.762,55.759 95.762,55.759C61.762,55.759 34.078,83.439 34.078,117.439C34.078,121.841 34.559,126.08 35.359,130.24C13.359,146.24 0,172.002 0,199.439C0,221.599 8.238,243.119 23.281,260.162C38.719,277.599 59.121,287.92 80.879,289.119L150.32,289.119C156.32,289.119 161.121,284.322 161.121,278.322C161.121,272.322 156.32,267.521 150.32,267.521L81.84,267.521C49.121,265.521 21.602,234.4 21.602,199.361C21.602,176.72 33.762,155.599 53.359,144.162C57.922,141.521 59.84,136.002 58.078,131.041C56.48,126.72 55.68,122.162 55.68,117.279C55.68,95.201 73.68,77.201 95.762,77.201C100.48,77.201 105.121,78.002 109.441,79.599C114.719,81.521 120.559,79.119 122.961,74.08C137.922,42.322 170.238,21.841 205.359,21.841C252.559,21.841 291.52,57.201 296,104.08C296.48,108.959 300.16,112.88 304.961,113.681C340.559,119.759 367.441,152.638 367.441,190.162C367.441,229.92 336.16,264.478 297.602,267.439L238.641,267.439C232.641,267.439 227.84,272.24 227.84,278.24C227.84,284.24 232.641,289.041 238.641,289.041L298.801,289.041C323.199,287.279 346,276.08 362.961,257.361C379.84,238.798 389.039,214.959 389.039,190.162C388.961,145.279 358.32,105.361 316.398,94.322Z" style="fill:white;fill-rule:nonzero;"/>
        <g transform="matrix(20.7769,0,0,20.7769,-79.3508,-37.788)">
            <path d="M15.211,13.021L11.148,13.021C10.742,13.021 10.414,12.693 10.414,12.287L10.414,8.896C10.414,8.49 10.742,8.162 11.148,8.162L15.211,8.162C15.617,8.162 15.949,8.49 15.949,8.896L15.949,12.287C15.949,12.693 15.617,13.021 15.211,13.021ZM11.215,12.221L15.148,12.221L15.148,8.963L11.215,8.963L11.215,12.221Z" style="fill:white;fill-rule:nonzero;"/>
            <path d="M14.754,8.963C14.531,8.963 14.352,8.783 14.352,8.56L14.352,7.795C14.352,7.146 13.828,6.623 13.18,6.623C12.531,6.623 12.008,7.146 12.008,7.795L12.008,8.56C12.008,8.783 11.828,8.963 11.605,8.963C11.387,8.963 11.207,8.783 11.207,8.56L11.207,7.795C11.207,6.709 12.094,5.822 13.18,5.822C14.27,5.822 15.152,6.709 15.152,7.795L15.152,8.56C15.152,8.783 14.973,8.963 14.754,8.963Z" style="fill:white;fill-rule:nonzero;"/>
        </g>
    </g>
</svg>
