<svg width="100%" height="100%" viewBox="0 0 30 30" version="1.1" xmlns="http://www.w3.org/2000/svg" xmlns:xlink="http://www.w3.org/1999/xlink" xml:space="preserve" xmlns:serif="http://www.serif.com/" style="fill-rule:evenodd;clip-rule:evenodd;stroke-linejoin:round;stroke-miterlimit:1.41421;">
  <g id="Facebook__x28_alt_x29_" transform="matrix(0.333333,0,0,0.333333,0,0)">
    <path d="M90,15.001C90,7.119 82.884,0 75,0L15,0C7.116,0 0,7.119 0,15.001L0,74.999C0,82.881 7.116,90 15.001,90L45,90L45,56L34,56L34,41L45,41L45,35.156C45,25.077 52.568,16 61.875,16L74,16L74,31L61.875,31C60.548,31 59,32.611 59,35.024L59,41L74,41L74,56L59,56L59,90L75,90C82.884,90 90,82.881 90,74.999L90,15.001Z" style="fill:white;fill-rule:nonzero;"/>
  </g>
</svg>