<svg viewBox="0 0 1024 1024" xmlns="http://www.w3.org/2000/svg" fill-rule="evenodd" clip-rule="evenodd" stroke-linejoin="round" stroke-miterlimit="1.414"><g fill-rule="nonzero"><path d="M714.381 603.533L893.558 316.85c22.032-35.37 11.066-82.601-24.296-104.64L663.71 541.896l-86.937-94.892a66.167 66.167 0 0 0-48.743-21.43c-21.738 0-42.128 10.708-54.463 28.597L299.766 707.957a69.86 69.86 0 0 1-54.757 27.88c-86.134-.021-156.995-70.897-156.995-157.03 0-3.706.13-7.411.394-11.11 5.849-81.711 74.71-145.821 156.63-145.821 22.891 0 45.51 5.003 66.267 14.664l8.887-19.925c60.684-113.634 201.531-160.52 318.218-105.93 33.614 16.277 74.552 4.602 94.534-26.947l1.433-2.294a319.936 319.936 0 0 0-199.123-69.542c-104.001 0-201.717 50.721-261.577 135.766a233.062 233.062 0 0 0-29.055-1.82c-121.661 0-223.806 95.458-232.041 216.832-6.666 96.254 44.292 185.843 139.758 231.999a176.227 176.227 0 0 0 76.76 17.416h16.627c45.41-.602 88.033-22.354 115.175-58.77l168.355-245.831 95.895 104.28a56.507 56.507 0 0 0 41.454 18.12c19.373 0 37.441-9.97 47.776-26.361z"/><path d="M916.35 422.85c-18.563 29.586-17.832 67.55 1.863 96.398a141.742 141.742 0 0 1 25.013 82.636c-1.075 78.838-67.37 140.547-145.922 140.547H543.661c-52.678-.015-102.109 25.937-132.017 69.305l388.742-.358h.187c115.984 0 211.428-95.444 211.428-211.429 0-71.377-36.15-138.11-95.938-177.098h.287z"/></g></svg>