<?xml version="1.0" encoding="UTF-8" standalone="no"?>
<!DOCTYPE svg PUBLIC "-//W3C//DTD SVG 1.1//EN" "http://www.w3.org/Graphics/SVG/1.1/DTD/svg11.dtd">
<svg width="100%" height="100%" viewBox="0 0 1024 1024" version="1.1" xmlns="http://www.w3.org/2000/svg" xmlns:xlink="http://www.w3.org/1999/xlink" xml:space="preserve" xmlns:serif="http://www.serif.com/" style="fill-rule:evenodd;clip-rule:evenodd;stroke-linejoin:round;stroke-miterlimit:1.41421;">
    <g id="icon" transform="matrix(7.16708,0,0,7.16708,12.0074,173.508)">
        <path d="M98,60L123,20C126.074,15.065 124.544,8.475 119.61,5.4L90.93,51.4L78.8,38.16C77.053,36.255 74.583,35.17 71.999,35.17C68.966,35.17 66.121,36.664 64.4,39.16L40.15,74.57C38.343,76.976 35.519,78.414 32.51,78.46C20.492,78.457 10.605,68.568 10.605,56.55C10.605,56.033 10.623,55.516 10.66,55C11.476,43.599 21.084,34.654 32.514,34.654C35.708,34.654 38.864,35.352 41.76,36.7L43,33.92C51.467,18.065 71.119,11.523 87.4,19.14C92.09,21.411 97.802,19.782 100.59,15.38L100.79,15.06C92.894,8.779 83.096,5.357 73.007,5.357C58.496,5.357 44.862,12.434 36.51,24.3C35.165,24.131 33.811,24.046 32.456,24.046C15.481,24.046 1.229,37.365 0.08,54.3C-0.85,67.73 6.26,80.23 19.58,86.67C22.921,88.277 26.583,89.108 30.29,89.1L32.61,89.1C38.946,89.016 44.893,85.981 48.68,80.9L72.17,46.6L85.55,61.15C87.041,62.761 89.139,63.678 91.334,63.678C94.037,63.678 96.558,62.287 98,60Z" style="fill-rule:nonzero;"/>
        <path d="M126.18,34.79C123.59,38.918 123.692,44.215 126.44,48.24C128.774,51.626 129.994,55.658 129.93,59.77C129.78,70.77 120.53,79.38 109.57,79.38L74.18,79.38C66.83,79.378 59.933,82.999 55.76,89.05L110,89C110.009,89 110.017,89 110.026,89C126.209,89 139.526,75.683 139.526,59.5C139.526,49.541 134.482,40.23 126.14,34.79L126.18,34.79Z" style="fill-rule:nonzero;"/>
    </g>
</svg>
