<svg width="100%" height="100%" viewBox="0 0 30 30" version="1.1" xmlns="http://www.w3.org/2000/svg" xmlns:xlink="http://www.w3.org/1999/xlink" xml:space="preserve" xmlns:serif="http://www.serif.com/" style="fill-rule:evenodd;clip-rule:evenodd;stroke-linejoin:round;stroke-miterlimit:1.41421;">
  <g id="linkedin" transform="matrix(0.0697485,0,0,0.0697485,0,-3.48742e-05)">
    <path d="M430.117,261.543L430.117,420.56L337.929,420.56L337.929,272.193C337.929,234.922 324.595,209.486 291.226,209.486C265.753,209.486 250.594,226.628 243.925,243.21C241.493,249.138 240.867,257.389 240.867,265.687L240.867,420.56L148.648,420.56C148.648,420.56 149.89,169.275 148.648,143.24L240.858,143.24L240.858,182.549C240.671,182.843 240.428,183.16 240.252,183.445L240.858,183.445L240.858,182.549C253.109,163.68 274.988,136.725 323.96,136.725C384.633,136.724 430.117,176.361 430.117,261.543ZM52.183,9.558C20.635,9.558 0,30.251 0,57.463C0,84.082 20.038,105.403 50.959,105.403L51.575,105.403C83.734,105.403 103.734,84.086 103.734,57.463C103.128,30.251 83.734,9.558 52.183,9.558ZM5.477,420.56L97.661,420.56L97.661,143.24L5.477,143.24L5.477,420.56Z" style="fill:white;fill-rule:nonzero;"/>
  </g>
</svg>