<svg viewBox="0 0 373 84" xmlns="http://www.w3.org/2000/svg" fill-rule="evenodd" clip-rule="evenodd" stroke-linejoin="round" stroke-miterlimit="1.414"><path d="M98 54.64l25-40c3.074-4.935 1.544-11.525-3.39-14.6l-28.68 46L78.8 32.82a9.232 9.232 0 0 0-14.4 1L40.15 69.2a9.747 9.747 0 0 1-7.64 3.89c-12.018-.002-21.906-9.892-21.906-21.91 0-.52.019-1.041.056-1.56.816-11.401 10.424-20.346 21.854-20.346 3.194 0 6.35.698 9.246 2.046l1.28-2.75c8.525-15.961 28.374-22.463 44.69-14.64 4.644 2.153 10.227.465 12.9-3.9l.2-.32A44.639 44.639 0 0 0 73.023-.012 44.666 44.666 0 0 0 36.52 18.94a32.518 32.518 0 0 0-4.054-.254C15.491 18.686 1.239 32.005.09 48.94c-.94 13.57 6.33 26.19 19.92 32.57a24.195 24.195 0 0 0 10.28 2.2h2.32a20.393 20.393 0 0 0 16.07-8.2l23.49-34.25L85.55 55.8A7.882 7.882 0 0 0 98 54.64z" fill="#fff" fill-rule="nonzero"/><path d="M127.14 27.62l-.14.23a12.21 12.21 0 0 0 .26 13.45 20.838 20.838 0 0 1 2.43 19.35c-2.966 7.907-10.606 13.145-19.05 13.06H73a22.386 22.386 0 0 0-18.42 9.67l-.23.33 56.11-.05c16.712-.029 30.447-13.788 30.447-30.5a30.527 30.527 0 0 0-13.767-25.5v-.04z" fill="#fff" fill-rule="nonzero"/><g fill="#fff"><path d="M151.79 4.24h10.4l24 31.56V4.24h11.13V55.5h-9.59L162.9 22.91V55.5h-11.11V4.24zm75.44-.37h10.4l22 51.63H247.8L243.11 44h-21.67l-4.69 11.5h-11.5l21.98-51.63zm11.86 30.17l-6.81-16.62-6.81 16.63 13.62-.01zm24.02-29.8h12.45l13.4 36.1 13.4-36.1h12.16L293.8 55.87h-10L263.11 4.24zM340 3.87h10.4l22 51.63h-11.81L355.9 44h-21.68l-4.69 11.5H318l22-51.63zm11.86 30.17l-6.81-16.62-6.81 16.63 13.62-.01zm-191.45 45.9a13.38 13.38 0 0 1-4.54-.79 12.007 12.007 0 0 1-4-2.44l2.63-3.15c.87.716 1.827 1.318 2.85 1.79a7.606 7.606 0 0 0 3.19.67 3.895 3.895 0 0 0 2.15-.51c.489-.294.783-.83.77-1.4v-.06a1.749 1.749 0 0 0-.16-.77 1.615 1.615 0 0 0-.61-.62 6.419 6.419 0 0 0-1.25-.58 22.072 22.072 0 0 0-2.07-.61 25.411 25.411 0 0 1-2.78-.84 7.825 7.825 0 0 1-2.12-1.14 4.612 4.612 0 0 1-1.35-1.69 5.849 5.849 0 0 1-.48-2.51v-.06a5.855 5.855 0 0 1 .52-2.5 5.684 5.684 0 0 1 1.45-1.92 6.51 6.51 0 0 1 2.23-1.24 8.983 8.983 0 0 1 2.86-.43 12.13 12.13 0 0 1 4.09.66 11.86 11.86 0 0 1 3.42 1.91l-2.31 3.35a14.722 14.722 0 0 0-2.66-1.46 6.795 6.795 0 0 0-2.6-.54 3.15 3.15 0 0 0-2 .51c-.408.289-.651.76-.65 1.26v.06c-.007.295.058.586.19.85.161.276.397.502.68.65.428.234.88.419 1.35.55.567.173 1.287.377 2.16.61.933.239 1.849.543 2.74.91a7.674 7.674 0 0 1 2 1.21 4.64 4.64 0 0 1 1.25 1.66 5.62 5.62 0 0 1 .42 2.28v.1a6.264 6.264 0 0 1-.55 2.67 5.491 5.491 0 0 1-1.52 2 6.84 6.84 0 0 1-2.33 1.21c-.967.263-1.968.381-2.97.35zm26.87.06a10.997 10.997 0 0 1-4.31-.82 10.683 10.683 0 0 1-3.4-2.23 9.998 9.998 0 0 1-2.23-3.29 10.375 10.375 0 0 1-.79-4.06v-.06c-.01-1.394.266-2.776.81-4.06a10.341 10.341 0 0 1 5.65-5.58 11.707 11.707 0 0 1 8.63 0 10.733 10.733 0 0 1 3.4 2.22 10.006 10.006 0 0 1 2.22 3.29c.533 1.287.802 2.667.79 4.06v.06a10.221 10.221 0 0 1-.81 4.06 10.354 10.354 0 0 1-5.65 5.58c-1.367.56-2.833.842-4.31.83zm.06-4.1a6.063 6.063 0 0 0 2.46-.49 5.618 5.618 0 0 0 1.92-1.36 6.438 6.438 0 0 0 1.24-2 6.634 6.634 0 0 0 .45-2.44v-.06a6.739 6.739 0 0 0-.45-2.46 6.063 6.063 0 0 0-3.22-3.4 5.949 5.949 0 0 0-2.46-.5 6.005 6.005 0 0 0-2.47.49 5.644 5.644 0 0 0-1.91 1.36 6.408 6.408 0 0 0-1.24 2 6.634 6.634 0 0 0-.45 2.44v.06a6.739 6.739 0 0 0 .45 2.46 6.103 6.103 0 0 0 3.21 3.4 5.89 5.89 0 0 0 2.47.49v.01zm20.46-16.48h4.45v16.21h10.09v4H207.8V59.42zm32.11 20.55a8.872 8.872 0 0 1-6.42-2.25c-1.56-1.5-2.34-3.743-2.34-6.73V59.42h4.45v11.44a5.361 5.361 0 0 0 1.16 3.74 4.142 4.142 0 0 0 3.21 1.26 4.225 4.225 0 0 0 3.21-1.21 5.102 5.102 0 0 0 1.16-3.64V59.42h4.45v11.42a11.72 11.72 0 0 1-.62 4 7.588 7.588 0 0 1-1.78 2.85 7.295 7.295 0 0 1-2.8 1.71 11.3 11.3 0 0 1-3.68.57zm23.9-16.45h-6.16v-4.1h16.76v4.1h-6.16v16.13h-4.45l.01-16.13z" fill-rule="nonzero"/><path d="M283.8 59.42h4.45v20.23h-4.45z"/><path d="M308.92 80a10.997 10.997 0 0 1-4.31-.82 10.683 10.683 0 0 1-3.4-2.23 9.998 9.998 0 0 1-2.23-3.29 10.375 10.375 0 0 1-.79-4.06v-.06c-.01-1.394.266-2.776.81-4.06a10.341 10.341 0 0 1 5.65-5.58 11.707 11.707 0 0 1 8.63 0 10.733 10.733 0 0 1 3.4 2.22 10.006 10.006 0 0 1 2.22 3.29c.533 1.287.802 2.667.79 4.06v.06a10.221 10.221 0 0 1-.81 4.06 10.354 10.354 0 0 1-5.65 5.58c-1.367.56-2.833.842-4.31.83zm.06-4.1a6.063 6.063 0 0 0 2.46-.49 5.618 5.618 0 0 0 1.92-1.36 6.438 6.438 0 0 0 1.24-2 6.634 6.634 0 0 0 .45-2.44v-.06a6.739 6.739 0 0 0-.45-2.46 6.063 6.063 0 0 0-3.22-3.4 5.949 5.949 0 0 0-2.46-.5 6.005 6.005 0 0 0-2.47.49 5.644 5.644 0 0 0-1.91 1.36 6.408 6.408 0 0 0-1.24 2 6.634 6.634 0 0 0-.45 2.44v.06a6.739 6.739 0 0 0 .45 2.46 6.103 6.103 0 0 0 3.21 3.4c.785.342 1.634.51 2.49.49l-.02.01zm20.46-16.48h4.1L343 71.88V59.42h4.39v20.23h-3.79l-9.8-12.86v12.86h-4.39l.03-20.23zm35.83 20.52a13.38 13.38 0 0 1-4.54-.79 12.007 12.007 0 0 1-4-2.44l2.63-3.15c.87.716 1.827 1.318 2.85 1.79a7.606 7.606 0 0 0 3.19.67 3.895 3.895 0 0 0 2.15-.51c.489-.294.783-.83.77-1.4v-.06a1.749 1.749 0 0 0-.16-.77 1.615 1.615 0 0 0-.61-.62 6.419 6.419 0 0 0-1.25-.58 22.072 22.072 0 0 0-2.07-.61 25.411 25.411 0 0 1-2.78-.84 7.825 7.825 0 0 1-2.12-1.14 4.612 4.612 0 0 1-1.35-1.69 5.849 5.849 0 0 1-.48-2.51v-.06a5.857 5.857 0 0 1 .5-2.52 5.684 5.684 0 0 1 1.45-1.92 6.51 6.51 0 0 1 2.23-1.24 8.983 8.983 0 0 1 2.86-.43 12.13 12.13 0 0 1 4.09.66 11.87 11.87 0 0 1 3.37 1.93l-2.31 3.35a14.722 14.722 0 0 0-2.66-1.46 6.795 6.795 0 0 0-2.6-.54 3.15 3.15 0 0 0-2 .51c-.408.289-.651.76-.65 1.26v.06c-.007.295.058.586.19.85.161.276.397.502.68.65.428.234.88.419 1.35.55.567.173 1.287.377 2.16.61.933.239 1.849.543 2.74.91a7.674 7.674 0 0 1 2 1.21 4.64 4.64 0 0 1 1.25 1.66 5.62 5.62 0 0 1 .42 2.28v.1a6.264 6.264 0 0 1-.55 2.67 5.491 5.491 0 0 1-1.52 2 6.84 6.84 0 0 1-2.33 1.21 10.14 10.14 0 0 1-2.9.35z" fill-rule="nonzero"/></g></svg>