<svg viewBox="0 0 200 200" xmlns="http://www.w3.org/2000/svg" fill-rule="evenodd" clip-rule="evenodd" stroke-linejoin="round" stroke-miterlimit="1.414"><path d="M71.554 174.631L2.327 105.375C.788 103.827 0 101.538 0 100c0-2.288.788-3.827 2.327-5.375L71.554 25.37c1.539-1.538 3.077-2.288 5.365-2.288 2.327 0 3.875.75 5.414 2.288l10.74 10.778c3.076 3.087 3.076 7.702 0 10.779l-30.76 30.766c-2.298 2.327-.75 6.904 3.077 6.904h126.907c4.625 0 7.702 3.086 7.702 7.701v15.404c0 4.615-3.077 7.701-7.702 7.701H64.641c-3.077 0-5.413 3.827-3.077 6.904l30.759 30.767c3.076 3.077 3.076 7.692 0 10.779L81.544 174.63c-1.538 1.538-3.086 2.288-5.375 2.288-1.538 0-3.076-.75-4.615-2.288z" fill-rule="nonzero"/></svg>