<svg viewBox="0 0 200 200" xmlns="http://www.w3.org/2000/svg" fill-rule="evenodd" clip-rule="evenodd" stroke-linejoin="round" stroke-miterlimit="1.414"><path d="M128.446 174.631l69.227-69.256c1.539-1.548 2.327-3.837 2.327-5.375 0-2.288-.788-3.827-2.327-5.375L128.446 25.37c-1.539-1.538-3.077-2.288-5.365-2.288-2.327 0-3.875.75-5.414 2.288l-10.74 10.778c-3.076 3.087-3.076 7.702 0 10.779l30.759 30.767c2.298 2.327.75 6.904-3.077 6.904H7.702C3.077 84.597 0 87.683 0 92.298v15.404c0 4.615 3.077 7.701 7.702 7.701h127.657c3.077 0 5.413 3.827 3.077 6.904l-30.759 30.767c-3.076 3.077-3.076 7.692 0 10.779l10.779 10.778c1.538 1.538 3.086 2.288 5.375 2.288 1.538 0 3.076-.75 4.615-2.288z" fill-rule="nonzero"/></svg>