<?xml version="1.0" encoding="UTF-8" standalone="no"?>
<!DOCTYPE svg PUBLIC "-//W3C//DTD SVG 1.1//EN" "http://www.w3.org/Graphics/SVG/1.1/DTD/svg11.dtd">
<svg width="100%" height="100%" viewBox="0 0 50 50" version="1.1" xmlns="http://www.w3.org/2000/svg" xmlns:xlink="http://www.w3.org/1999/xlink" xml:space="preserve" xmlns:serif="http://www.serif.com/" style="fill-rule:evenodd;clip-rule:evenodd;stroke-linejoin:round;stroke-miterlimit:1.41421;">
    <g id="icon" transform="matrix(0.0978471,0,0,0.0978471,0,0.943958)">
        <path d="M471.117,240.262L458.934,135.09C506.555,100.582 526.301,42.668 497.777,14.145C485.598,1.965 466.562,-2.008 445.562,3.242C426.957,7.895 407.879,19.289 391.84,35.328C391.645,35.527 391.457,35.73 391.262,35.926L250.469,19.613L0,270.086L220.648,490.73L471.117,240.262ZM452.828,32.312C463.375,29.676 472.035,30.773 476.586,35.328C487.676,46.418 477.52,77.16 454.809,99.504L451.32,69.387L426.809,44.875C435.363,38.82 444.363,34.43 452.828,32.312ZM261.41,51.047L370.141,63.645C365.566,71.719 362.121,80.008 359.98,88.223L349.465,77.707L328.281,98.891L391.84,162.457L413.027,141.266L391.84,120.082C387.285,115.527 386.188,106.867 388.82,96.324C391.172,86.918 396.328,76.867 403.445,67.5L407.535,67.977L422.758,83.199L439.688,229.32L220.648,448.355L42.375,270.086L261.41,51.047Z" style="fill:white;fill-rule:nonzero;"/>
        <g>
            <path d="M165.398,211.684C140.621,211.684 120.457,231.848 120.457,256.629C120.457,281.41 140.621,301.574 165.398,301.574C190.184,301.574 210.348,281.41 210.348,256.629C210.348,231.848 190.184,211.684 165.398,211.684ZM165.398,271.609C157.137,271.609 150.422,264.887 150.422,256.629C150.422,248.371 157.137,241.649 165.398,241.649C173.66,241.649 180.383,248.371 180.383,256.629C180.383,264.887 173.664,271.609 165.398,271.609Z" style="fill:white;fill-rule:nonzero;"/>
            <path d="M315.215,301.574C340,301.574 360.164,281.41 360.164,256.629C360.164,231.848 340,211.684 315.215,211.684C290.434,211.684 270.273,231.848 270.273,256.629C270.273,281.41 290.434,301.574 315.215,301.574ZM315.215,241.649C323.477,241.649 330.199,248.371 330.199,256.629C330.199,264.887 323.477,271.609 315.215,271.609C306.953,271.609 300.234,264.887 300.234,256.629C300.234,248.371 306.953,241.649 315.215,241.649Z" style="fill:white;fill-rule:nonzero;"/>
            <path d="M240.516,164.281L270.07,169.203L240.105,348.984L210.551,344.059L240.516,164.281Z" style="fill:white;fill-rule:nonzero;"/>
        </g>
    </g>
</svg>
