<svg viewBox="0 0 30 30" xmlns="http://www.w3.org/2000/svg" fill-rule="evenodd" clip-rule="evenodd" stroke-linejoin="round" stroke-miterlimit="1.414"><path d="M30 5.698c-1.1.488-2.29.825-3.534.973a6.199 6.199 0 0 0 2.71-3.408 12.264 12.264 0 0 1-3.92 1.493A6.154 6.154 0 0 0 14.62 8.967c0 .486.056.952.157 1.402A17.472 17.472 0 0 1 2.088 3.941a6.145 6.145 0 0 0 1.903 8.212 6.06 6.06 0 0 1-2.782-.77v.076A6.17 6.17 0 0 0 6.142 17.5a6.35 6.35 0 0 1-2.781.1 6.175 6.175 0 0 0 5.748 4.275 12.368 12.368 0 0 1-7.644 2.627c-.495 0-.98-.028-1.465-.082a17.417 17.417 0 0 0 9.438 2.763c11.314 0 17.504-9.374 17.504-17.502l-.02-.796A12.39 12.39 0 0 0 30 5.697z" fill="#fff" fill-rule="nonzero"/></svg>