<svg viewBox="0 0 50 50" xmlns="http://www.w3.org/2000/svg" fill-rule="evenodd" clip-rule="evenodd" stroke-linejoin="round" stroke-miterlimit="1.414"><g fill="#fff" fill-rule="nonzero"><path d="M40.664 18.518a14.433 14.433.0 0 0-4.513-8.277 14.443 14.443.0 0 0-9.768-3.794c-2.797.0-5.521.801-7.855 2.313a14.418 14.418.0 0 0-4.699 4.946 8.32 8.32.0 0 0-1.521-.144c-4.37.0-7.928 3.557-7.928 7.927.0.565.062 1.11.164 1.645A11.031 11.031.0 0 0 0 32.028c0 2.848 1.059 5.613 2.992 7.804 1.984 2.24 4.606 3.567 7.403 3.721h8.924c.772.0 1.389-.616 1.389-1.387s-.617-1.388-1.389-1.388h-8.8c-4.206-.257-7.743-4.257-7.743-8.76a8.24 8.24.0 0 1 4.082-7.095c.586-.34.833-1.049.606-1.686a5.043 5.043.0 0 1-.308-1.769 5.16 5.16.0 0 1 5.152-5.15c.606.0 1.202.102 1.758.307a1.394 1.394.0 0 0 1.737-.709 11.747 11.747.0 0 1 10.59-6.714c6.066.0 11.074 4.545 11.65 10.57a1.387 1.387.0 0 0 1.151 1.234c4.575.78 8.03 5.007 8.03 9.83.0 5.109-4.02 9.55-8.976 9.931h-7.577c-.772.0-1.389.617-1.389 1.388.0.771.617 1.388 1.389 1.388h7.732c3.135-.226 6.066-1.665 8.245-4.071A12.806 12.806.0 0 0 50 30.835c-.01-5.768-3.948-10.899-9.336-12.317z"/><path d="M30.42 36.308H19.57a1.958 1.958.0 0 1-1.96-1.96v-9.054c0-1.085.876-1.96 1.96-1.96h10.85c1.084.0 1.97.875 1.97 1.96v9.054c0 1.085-.886 1.96-1.97 1.96zm-10.671-2.136h10.502v-8.7H19.75v8.7z"/><path d="M29.2 25.472c-.596.0-1.074-.48-1.074-1.076v-2.042c0-1.733-1.4-3.13-3.13-3.13a3.124 3.124.0 0 0-3.13 3.13v2.042c0 .596-.48 1.076-1.076 1.076a1.07 1.07.0 0 1-1.062-1.076v-2.042c0-2.9 2.368-5.269 5.268-5.269a5.272 5.272.0 0 1 5.266 5.269v2.042a1.07 1.07.0 0 1-1.063 1.076z"/></g></svg>