<svg viewBox="0 0 50 50" xmlns="http://www.w3.org/2000/svg" fill-rule="evenodd" clip-rule="evenodd" stroke-linejoin="round" stroke-miterlimit="1.414"><g fill="#fff" fill-rule="nonzero"><path d="M46.097 24.453l-1.192-10.29c4.66-3.377 6.592-9.044 3.801-11.835-1.192-1.192-3.054-1.58-5.11-1.067-1.82.455-3.686 1.57-5.256 3.14l-.056.058-13.776-1.596L0 27.371l21.59 21.59 24.507-24.508zm-1.79-20.347c1.033-.258 1.88-.151 2.326.295 1.085 1.085.09 4.093-2.131 6.28l-.342-2.948-2.398-2.398c.837-.593 1.718-1.022 2.546-1.23zM25.579 5.939l10.64 1.232c-.448.79-.786 1.602-.995 2.405l-1.029-1.029-2.073 2.073 6.22 6.22 2.072-2.074-2.073-2.072c-.445-.446-.553-1.293-.295-2.325.23-.92.735-1.904 1.43-2.82l.401.046 1.49 1.49 1.656 14.297L21.59 44.814 4.146 27.371 25.578 5.94z"/><path d="M16.184 21.657a4.403 4.403.0 0 0-4.398 4.397 4.403 4.403.0 0 0 4.398 4.398 4.403 4.403.0 0 0 4.398-4.398 4.403 4.403.0 0 0-4.398-4.397zm0 5.863a1.467 1.467.0 0 1-1.466-1.466 1.467 1.467.0 0 1 2.932.0c0 .808-.657 1.466-1.466 1.466zm14.659 2.932a4.403 4.403.0 0 0 4.398-4.398 4.403 4.403.0 0 0-4.398-4.397 4.403 4.403.0 0 0-4.398 4.397 4.403 4.403.0 0 0 4.398 4.398zm0-5.863c.808.0 1.466.657 1.466 1.465s-.658 1.466-1.466 1.466a1.467 1.467.0 0 1-1.466-1.466c0-.808.657-1.465 1.466-1.465zm-7.309-7.571 2.892.482-2.932 17.591-2.892-.482 2.932-17.59z"/></g></svg>