<svg width="100%" height="100%" viewBox="0 0 373 84" version="1.1"  style="fill-rule:evenodd;clip-rule:evenodd;stroke-linejoin:round;stroke-miterlimit:1.41421;">
  <g>
    <g transform="matrix(1,0,0,1,-385,-752.29)">
      <path d="M483,806.93L508,766.93C511.074,761.995 509.544,755.405 504.61,752.33L475.93,798.33L463.8,785.11C462.053,783.205 459.583,782.12 456.999,782.12C453.966,782.12 451.121,783.614 449.4,786.11L425.15,821.49C423.343,823.896 420.519,825.334 417.51,825.38C405.492,825.378 395.604,815.488 395.604,803.47C395.604,802.95 395.623,802.429 395.66,801.91C396.476,790.509 406.084,781.564 417.514,781.564C420.708,781.564 423.864,782.262 426.76,783.61L428.04,780.86C436.565,764.899 456.414,758.397 472.73,766.22C477.374,768.373 482.957,766.685 485.63,762.32L485.83,762C477.93,755.707 468.123,752.278 458.023,752.278C443.509,752.278 429.871,759.359 421.52,771.23C420.175,771.061 418.821,770.976 417.466,770.976C400.491,770.976 386.239,784.295 385.09,801.23C384.15,814.8 391.42,827.42 405.01,833.8C408.234,835.278 411.744,836.029 415.29,836L417.61,836C423.946,835.916 429.893,832.881 433.68,827.8L457.17,793.55L470.55,808.09C472.041,809.699 474.137,810.614 476.33,810.614C479.036,810.614 481.559,809.22 483,806.93Z" style="fill:rgb(38,38,38);fill-rule:nonzero;"/>
    </g>
    <g transform="matrix(1,0,0,1,-385,-752.29)">
      <path d="M512.14,779.91L512,780.14C509.386,784.262 509.489,789.573 512.26,793.59C516.224,799.233 517.135,806.492 514.69,812.94C511.724,820.847 504.084,826.085 495.64,826L458,826C450.65,825.998 443.753,829.619 439.58,835.67L439.35,836L495.46,835.95C512.172,835.921 525.907,822.162 525.907,805.45C525.907,795.184 520.723,785.582 512.14,779.95L512.14,779.91Z" style="fill:rgb(38,38,38);fill-rule:nonzero;"/>
    </g>
  </g>
  <g>
    <g>
      <g transform="matrix(1,0,0,1,-385,-752.29)">
        <path d="M536.79,756.53L547.19,756.53L571.19,788.09L571.19,756.53L582.32,756.53L582.32,807.79L572.73,807.79L547.9,775.2L547.9,807.79L536.79,807.79L536.79,756.53Z" style="fill:rgb(38,38,38);fill-rule:nonzero;"/>
      </g>
      <g transform="matrix(1,0,0,1,-385,-752.29)">
        <path d="M612.23,756.16L622.63,756.16L644.63,807.79L632.8,807.79L628.11,796.29L606.44,796.29L601.75,807.79L590.25,807.79L612.23,756.16ZM624.09,786.33L617.28,769.71L610.47,786.34L624.09,786.33Z" style="fill:rgb(38,38,38);fill-rule:nonzero;"/>
      </g>
      <g transform="matrix(1,0,0,1,-385,-752.29)">
        <path d="M648.11,756.53L660.56,756.53L673.96,792.63L687.36,756.53L699.52,756.53L678.8,808.16L668.8,808.16L648.11,756.53Z" style="fill:rgb(38,38,38);fill-rule:nonzero;"/>
      </g>
      <g transform="matrix(1,0,0,1,-385,-752.29)">
        <path d="M725,756.16L735.4,756.16L757.4,807.79L745.59,807.79L740.9,796.29L719.22,796.29L714.53,807.79L703,807.79L725,756.16ZM736.86,786.33L730.05,769.71L723.24,786.34L736.86,786.33Z" style="fill:rgb(38,38,38);fill-rule:nonzero;"/>
      </g>
    </g>
    <g>
      <g transform="matrix(1,0,0,1,-385,-752.29)">
        <path d="M545.41,832.23C543.862,832.231 542.326,831.964 540.87,831.44C539.389,830.897 538.03,830.068 536.87,829L539.5,825.85C540.37,826.566 541.327,827.168 542.35,827.64C543.352,828.091 544.441,828.32 545.54,828.31C546.291,828.351 547.038,828.174 547.69,827.8C548.179,827.506 548.473,826.97 548.46,826.4L548.46,826.34C548.466,826.075 548.411,825.811 548.3,825.57C548.157,825.311 547.946,825.097 547.69,824.95C547.295,824.712 546.876,824.518 546.44,824.37C545.907,824.177 545.217,823.973 544.37,823.76C543.428,823.533 542.5,823.253 541.59,822.92C540.829,822.652 540.114,822.267 539.47,821.78C538.892,821.332 538.43,820.752 538.12,820.09C537.777,819.299 537.613,818.442 537.64,817.58L537.64,817.52C537.627,816.659 537.805,815.805 538.16,815.02C538.501,814.284 538.995,813.629 539.61,813.1C540.264,812.544 541.022,812.122 541.84,811.86C542.764,811.563 543.73,811.418 544.7,811.43C546.091,811.414 547.475,811.637 548.79,812.09C550.028,812.533 551.184,813.178 552.21,814L549.9,817.35C549.066,816.773 548.175,816.284 547.24,815.89C546.417,815.541 545.534,815.357 544.64,815.35C543.935,815.291 543.23,815.47 542.64,815.86C542.232,816.149 541.989,816.62 541.99,817.12L541.99,817.18C541.983,817.475 542.048,817.766 542.18,818.03C542.341,818.306 542.577,818.532 542.86,818.68C543.288,818.914 543.74,819.099 544.21,819.23C544.777,819.403 545.497,819.607 546.37,819.84C547.303,820.079 548.219,820.383 549.11,820.75C549.835,821.049 550.509,821.457 551.11,821.96C551.647,822.412 552.074,822.979 552.36,823.62C552.657,824.343 552.8,825.119 552.78,825.9L552.78,826C552.795,826.92 552.607,827.831 552.23,828.67C551.885,829.445 551.364,830.13 550.71,830.67C550.019,831.22 549.227,831.631 548.38,831.88C547.413,832.143 546.412,832.261 545.41,832.23Z" style="fill:rgb(38,38,38);fill-rule:nonzero;"/>
      </g>
      <g transform="matrix(1,0,0,1,-385,-752.29)">
        <path d="M572.28,832.29C570.803,832.309 569.337,832.03 567.97,831.47C566.704,830.951 565.55,830.194 564.57,829.24C563.614,828.304 562.856,827.185 562.34,825.95C561.807,824.663 561.538,823.283 561.55,821.89L561.55,821.83C561.54,820.436 561.816,819.054 562.36,817.77C563.425,815.233 565.46,813.223 568.01,812.19C570.781,811.091 573.869,811.091 576.64,812.19C577.904,812.707 579.058,813.46 580.04,814.41C580.992,815.347 581.747,816.466 582.26,817.7C582.793,818.987 583.062,820.367 583.05,821.76L583.05,821.82C583.06,823.214 582.784,824.596 582.24,825.88C581.174,828.416 579.139,830.426 576.59,831.46C575.223,832.02 573.757,832.302 572.28,832.29ZM572.34,828.19C573.185,828.2 574.023,828.033 574.8,827.7C575.529,827.387 576.183,826.924 576.72,826.34C577.253,825.755 577.673,825.077 577.96,824.34C578.262,823.562 578.415,822.734 578.41,821.9L578.41,821.84C578.415,820.999 578.262,820.165 577.96,819.38C577.386,817.862 576.225,816.636 574.74,815.98C573.965,815.64 573.126,815.47 572.28,815.48C571.431,815.467 570.589,815.634 569.81,815.97C569.085,816.285 568.434,816.748 567.9,817.33C567.367,817.914 566.946,818.593 566.66,819.33C566.358,820.108 566.205,820.936 566.21,821.77L566.21,821.83C566.205,822.671 566.358,823.505 566.66,824.29C567.236,825.804 568.391,827.028 569.87,827.69C570.648,828.029 571.491,828.197 572.34,828.18L572.34,828.19Z" style="fill:rgb(38,38,38);fill-rule:nonzero;"/>
      </g>
      <g transform="matrix(1,0,0,1,-385,-752.29)">
        <path d="M592.8,811.71L597.25,811.71L597.25,827.92L607.34,827.92L607.34,831.92L592.8,831.92L592.8,811.71Z" style="fill:rgb(38,38,38);fill-rule:nonzero;"/>
      </g>
      <g transform="matrix(1,0,0,1,-385,-752.29)">
        <path d="M624.91,832.26C622.557,832.393 620.245,831.583 618.49,830.01C616.93,828.51 616.15,826.267 616.15,823.28L616.15,811.71L620.6,811.71L620.6,823.15C620.501,824.498 620.916,825.835 621.76,826.89C622.595,827.756 623.768,828.217 624.97,828.15C626.162,828.219 627.33,827.779 628.18,826.94C629.023,825.923 629.44,824.617 629.34,823.3L629.34,811.71L633.79,811.71L633.79,823.13C633.817,824.489 633.607,825.843 633.17,827.13C632.797,828.201 632.189,829.175 631.39,829.98C630.599,830.755 629.641,831.34 628.59,831.69C627.403,832.082 626.16,832.275 624.91,832.26Z" style="fill:rgb(38,38,38);fill-rule:nonzero;"/>
      </g>
      <g transform="matrix(1,0,0,1,-385,-752.29)">
        <path d="M648.81,815.81L642.65,815.81L642.65,811.71L659.41,811.71L659.41,815.81L653.25,815.81L653.25,831.94L648.8,831.94L648.81,815.81Z" style="fill:rgb(38,38,38);fill-rule:nonzero;"/>
      </g>
      <g transform="matrix(1,0,0,1,-385,-752.29)">
        <rect x="668.8" y="811.71" width="4.45" height="20.23" style="fill:rgb(38,38,38);fill-rule:nonzero;"/>
      </g>
      <g transform="matrix(1,0,0,1,-385,-752.29)">
        <path d="M693.92,832.29C692.443,832.309 690.977,832.03 689.61,831.47C688.344,830.951 687.19,830.194 686.21,829.24C685.254,828.304 684.496,827.185 683.98,825.95C683.447,824.663 683.178,823.283 683.19,821.89L683.19,821.83C683.18,820.436 683.456,819.054 684,817.77C685.065,815.233 687.1,813.223 689.65,812.19C692.421,811.091 695.509,811.091 698.28,812.19C699.544,812.707 700.698,813.46 701.68,814.41C702.632,815.347 703.387,816.466 703.9,817.7C704.433,818.987 704.702,820.367 704.69,821.76L704.69,821.82C704.7,823.214 704.424,824.596 703.88,825.88C702.814,828.416 700.779,830.426 698.23,831.46C696.863,832.02 695.397,832.302 693.92,832.29ZM693.98,828.19C694.825,828.2 695.663,828.033 696.44,827.7C697.169,827.387 697.823,826.924 698.36,826.34C698.893,825.755 699.313,825.077 699.6,824.34C699.902,823.562 700.055,822.734 700.05,821.9L700.05,821.84C700.055,820.999 699.902,820.165 699.6,819.38C699.026,817.862 697.865,816.636 696.38,815.98C695.605,815.64 694.766,815.47 693.92,815.48C693.071,815.467 692.229,815.634 691.45,815.97C690.725,816.285 690.074,816.748 689.54,817.33C689.007,817.914 688.586,818.593 688.3,819.33C687.998,820.108 687.845,820.936 687.85,821.77L687.85,821.83C687.845,822.671 687.998,823.505 688.3,824.29C688.876,825.804 690.031,827.028 691.51,827.69C692.295,828.032 693.144,828.2 694,828.18L693.98,828.19Z" style="fill:rgb(38,38,38);fill-rule:nonzero;"/>
      </g>
      <g transform="matrix(1,0,0,1,-385,-752.29)">
        <path d="M714.44,811.71L718.54,811.71L728,824.17L728,811.71L732.39,811.71L732.39,831.94L728.6,831.94L718.8,819.08L718.8,831.94L714.41,831.94L714.44,811.71Z" style="fill:rgb(38,38,38);fill-rule:nonzero;"/>
      </g>
      <g transform="matrix(1,0,0,1,-385,-752.29)">
        <path d="M750.27,832.23C748.722,832.231 747.186,831.964 745.73,831.44C744.249,830.897 742.89,830.068 741.73,829L744.36,825.85C745.23,826.566 746.187,827.168 747.21,827.64C748.212,828.091 749.301,828.32 750.4,828.31C751.151,828.351 751.898,828.174 752.55,827.8C753.039,827.506 753.333,826.97 753.32,826.4L753.32,826.34C753.326,826.075 753.271,825.811 753.16,825.57C753.017,825.311 752.806,825.097 752.55,824.95C752.155,824.712 751.736,824.518 751.3,824.37C750.767,824.177 750.077,823.973 749.23,823.76C748.288,823.533 747.36,823.253 746.45,822.92C745.689,822.652 744.974,822.267 744.33,821.78C743.752,821.332 743.29,820.752 742.98,820.09C742.637,819.299 742.473,818.442 742.5,817.58L742.5,817.52C742.478,816.653 742.649,815.793 743,815C743.341,814.264 743.835,813.609 744.45,813.08C745.104,812.524 745.862,812.102 746.68,811.84C747.604,811.543 748.57,811.398 749.54,811.41C750.931,811.394 752.315,811.617 753.63,812.07C754.852,812.524 755.99,813.176 757,814L754.69,817.35C753.856,816.773 752.965,816.284 752.03,815.89C751.207,815.541 750.324,815.357 749.43,815.35C748.725,815.291 748.02,815.47 747.43,815.86C747.022,816.149 746.779,816.62 746.78,817.12L746.78,817.18C746.773,817.475 746.838,817.766 746.97,818.03C747.131,818.306 747.367,818.532 747.65,818.68C748.078,818.914 748.53,819.099 749,819.23C749.567,819.403 750.287,819.607 751.16,819.84C752.093,820.079 753.009,820.383 753.9,820.75C754.625,821.049 755.299,821.457 755.9,821.96C756.437,822.412 756.864,822.979 757.15,823.62C757.447,824.343 757.59,825.119 757.57,825.9L757.57,826C757.585,826.92 757.397,827.831 757.02,828.67C756.675,829.445 756.154,830.13 755.5,830.67C754.809,831.22 754.017,831.631 753.17,831.88C752.225,832.136 751.248,832.254 750.27,832.23Z" style="fill:rgb(38,38,38);fill-rule:nonzero;"/>
      </g>
    </g>
  </g>
</svg>
